<svg xmlns="http://www.w3.org/2000/svg" version="1.1" xmlns:xlink="http://www.w3.org/1999/xlink" width="463" height="512"><svg width="463" height="512" viewBox="0 0 463 512" fill="none" xmlns="http://www.w3.org/2000/svg">
<path d="M352.393 314.939C352.393 319.944 349.723 324.568 345.389 327.071L246.244 384.312L246.244 263.89L352.393 202.604V314.939Z" fill="white"></path>
<path d="M216.824 263.353L216.824 512L119.781 456.471C115.446 453.968 112.776 449.343 112.776 444.338L112.776 203.28L216.824 263.353Z" fill="white"></path>
<path d="M225.58 119.556C229.914 117.054 235.255 117.054 239.589 119.556L338.493 176.658L231.999 238.142L126.09 176.996L225.58 119.556Z" fill="white"></path>
<path d="M189.097 11.2614C215.104 -3.75381 247.146 -3.75381 273.153 11.2614L420.221 96.171C446.228 111.186 462.25 138.936 462.25 168.966L462.25 338.786C462.25 368.816 446.228 396.566 420.221 411.581L273.153 496.491C264.561 501.451 245.835 512 245.835 512L245.835 417.403L369.941 345.75C376.443 341.997 380.448 335.059 380.448 327.551V180.201C380.448 172.693 376.443 165.756 369.941 162.002L242.332 88.327C235.831 84.5732 227.82 84.5732 221.318 88.327L93.7093 162.002C87.2075 165.756 83.2022 172.693 83.2022 180.201L83.2022 327.551C83.2022 328.314 83.2443 329.07 83.3253 329.818L83.3253 435.424L42.0283 411.581C16.0213 396.566 3.49189e-05 368.816 0 338.786L0 168.967C3.86757e-06 138.936 16.0212 111.186 42.0283 96.171L189.097 11.2614Z" fill="white"></path>
</svg><style>@media (prefers-color-scheme: light) { :root { filter: none; } }
@media (prefers-color-scheme: dark) { :root { filter: none; } }
</style></svg>