<svg width="69" height="76" viewBox="0 0 69 76" fill="none" xmlns="http://www.w3.org/2000/svg">
<path d="M52.6017 46.7487C52.6017 47.4916 52.2031 48.1781 51.5561 48.5496L36.7568 57.0463V39.1711L52.6017 30.0741V46.7487Z" fill="url(#paint0_linear_1499_192)"/>
<path d="M32.3653 39.0914L32.3653 76L17.8797 67.7574C17.2326 67.3859 16.8341 66.6994 16.8341 65.9565L16.8341 30.1744L32.3653 39.0914Z" fill="url(#paint1_linear_1499_192)"/>
<path d="M33.6723 17.7466C34.3193 17.3751 35.1165 17.3751 35.7635 17.7466L50.5269 26.2227L34.6305 35.3493L18.8215 26.2729L33.6723 17.7466Z" fill="url(#paint2_linear_1499_192)"/>
<path d="M28.2264 1.67162C32.1085 -0.557206 36.8915 -0.557206 40.7736 1.67162L62.7264 14.2754C66.6085 16.5042 69 20.6233 69 25.0809L69 50.2885C69 54.7462 66.6085 58.8652 62.7264 61.0941L40.7736 73.6978C39.491 74.4342 36.6957 76 36.6957 76L36.6957 61.9583L55.2211 51.3223C56.1917 50.7651 56.7895 49.7353 56.7895 48.6209V26.7486C56.7895 25.6342 56.1917 24.6044 55.2211 24.0472L36.173 13.111C35.2024 12.5538 34.0067 12.5538 33.0362 13.111L13.988 24.0472C13.0175 24.6044 12.4196 25.6342 12.4196 26.7486L12.4196 48.6209C12.4196 48.734 12.4259 48.8463 12.438 48.9574L12.438 64.6332L6.27356 61.0941C2.39149 58.8652 5.21235e-06 54.7462 0 50.2885L0 25.081C5.77312e-07 20.6234 2.39148 16.5042 6.27356 14.2754L28.2264 1.67162Z" fill="url(#paint3_linear_1499_192)"/>
<defs>
<linearGradient id="paint0_linear_1499_192" x1="34.5" y1="0" x2="34.5" y2="76" gradientUnits="userSpaceOnUse">
<stop stop-color="#7F00FF"/>
<stop offset="1" stop-color="#00E5FF"/>
</linearGradient>
<linearGradient id="paint1_linear_1499_192" x1="34.5" y1="0" x2="34.5" y2="76" gradientUnits="userSpaceOnUse">
<stop stop-color="#7F00FF"/>
<stop offset="1" stop-color="#00E5FF"/>
</linearGradient>
<linearGradient id="paint2_linear_1499_192" x1="34.5" y1="0" x2="34.5" y2="76" gradientUnits="userSpaceOnUse">
<stop stop-color="#7F00FF"/>
<stop offset="1" stop-color="#00E5FF"/>
</linearGradient>
<linearGradient id="paint3_linear_1499_192" x1="34.5" y1="0" x2="34.5" y2="76" gradientUnits="userSpaceOnUse">
<stop stop-color="#7F00FF"/>
<stop offset="1" stop-color="#00E5FF"/>
</linearGradient>
</defs>
</svg>
